<?xml version="1.0" encoding="UTF-8"?> <svg xmlns="http://www.w3.org/2000/svg" width="721" height="621" viewBox="0 0 721 621" fill="none"> <path d="M569.912 302.446C573.805 326.852 557.244 349.698 532.838 353.591C508.433 357.483 485.587 340.922 481.695 316.517C477.802 292.111 494.362 269.265 518.768 265.373C542.949 261.516 566.02 278.041 569.912 302.446Z" fill="#000F30" stroke="white" stroke-width="2"></path> <path fill-rule="evenodd" clip-rule="evenodd" d="M470.245 187.861C470.583 195.455 471.595 207.713 472.936 219.2C473.366 222.884 472.998 226.315 472.002 229.448C483.125 234.693 499.302 242.448 514.513 250.209C508.922 251.964 501.709 254.993 493.511 258.436C469.011 268.725 435.716 282.708 410.616 277.421C378.308 270.635 381.07 244.17 382.014 237.131C398.547 234.265 414.222 231.765 414.222 231.765L415.079 231.592C414.234 227.932 414.004 223.683 414.546 218.804C413.21 210.335 413.852 203.007 414.361 197.203C414.64 194.013 414.879 191.283 414.727 189.077C431.331 181.124 465.68 169.746 470.245 187.861Z" fill="#000F30"></path> <path d="M472.936 219.2L471.943 219.316L471.943 219.316L472.936 219.2ZM470.245 187.861L471.244 187.817L471.239 187.716L471.214 187.617L470.245 187.861ZM472.002 229.448L471.049 229.145L470.784 229.979L471.576 230.353L472.002 229.448ZM514.513 250.209L514.813 251.163L517.147 250.43L514.968 249.318L514.513 250.209ZM493.511 258.436L493.898 259.358L493.898 259.358L493.511 258.436ZM410.616 277.421L410.822 276.443L410.822 276.442L410.616 277.421ZM382.014 237.131L381.843 236.146L381.121 236.271L381.023 236.998L382.014 237.131ZM414.222 231.765L414.379 232.752L414.399 232.749L414.419 232.745L414.222 231.765ZM415.079 231.592L415.277 232.572L416.285 232.369L416.054 231.367L415.079 231.592ZM414.546 218.804L415.54 218.914L415.555 218.781L415.534 218.648L414.546 218.804ZM414.361 197.203L413.364 197.115L413.364 197.115L414.361 197.203ZM414.727 189.077L414.295 188.175L413.683 188.469L413.73 189.146L414.727 189.077ZM473.929 219.084C472.59 207.615 471.581 195.382 471.244 187.817L469.246 187.906C469.585 195.529 470.599 207.812 471.943 219.316L473.929 219.084ZM472.956 229.751C473.995 226.481 474.376 222.908 473.929 219.084L471.943 219.316C472.357 222.86 472.002 226.148 471.049 229.145L472.956 229.751ZM471.576 230.353C482.694 235.596 498.86 243.346 514.059 251.099L514.968 249.318C499.743 241.551 483.555 233.791 472.429 228.544L471.576 230.353ZM514.214 249.255C508.567 251.027 501.304 254.079 493.124 257.514L493.898 259.358C502.113 255.908 509.276 252.901 514.813 251.163L514.214 249.255ZM493.124 257.514C480.865 262.662 466.472 268.706 452.016 272.807C437.545 276.913 423.134 279.036 410.822 276.443L410.41 278.4C423.198 281.093 437.985 278.867 452.562 274.731C467.153 270.591 481.657 264.499 493.898 259.358L493.124 257.514ZM410.822 276.442C394.982 273.115 387.88 265.023 384.778 257.01C381.645 248.915 382.537 240.754 383.005 237.264L381.023 236.998C380.547 240.547 379.587 249.138 382.913 257.732C386.272 266.408 393.942 274.941 410.411 278.4L410.822 276.442ZM382.185 238.117C390.448 236.684 398.497 235.343 404.48 234.36C407.472 233.868 409.947 233.466 411.674 233.187C412.537 233.048 413.214 232.939 413.674 232.865C413.904 232.828 414.081 232.8 414.199 232.781C414.259 232.772 414.304 232.764 414.334 232.76C414.349 232.757 414.36 232.755 414.368 232.754C414.372 232.754 414.374 232.753 414.376 232.753C414.377 232.753 414.378 232.752 414.378 232.752C414.379 232.752 414.379 232.752 414.379 232.752C414.379 232.752 414.379 232.752 414.222 231.765C414.064 230.777 414.064 230.777 414.064 230.777C414.064 230.777 414.064 230.777 414.063 230.777C414.063 230.777 414.062 230.778 414.061 230.778C414.059 230.778 414.056 230.779 414.053 230.779C414.045 230.78 414.033 230.782 414.018 230.785C413.988 230.789 413.943 230.797 413.884 230.806C413.765 230.825 413.588 230.853 413.357 230.89C412.896 230.964 412.219 231.073 411.355 231.213C409.626 231.492 407.149 231.894 404.156 232.386C398.169 233.37 390.114 234.712 381.843 236.146L382.185 238.117ZM414.419 232.745L415.277 232.572L414.882 230.612L414.024 230.784L414.419 232.745ZM413.552 218.694C413 223.666 413.231 228.03 414.105 231.817L416.054 231.367C415.238 227.834 415.009 223.7 415.54 218.914L413.552 218.694ZM413.364 197.115C412.856 202.92 412.201 210.357 413.558 218.96L415.534 218.648C414.219 210.313 414.848 203.094 415.357 197.29L413.364 197.115ZM413.73 189.146C413.875 191.256 413.646 193.897 413.364 197.115L415.357 197.29C415.634 194.128 415.883 191.31 415.725 189.009L413.73 189.146ZM471.214 187.617C469.977 182.705 466.685 179.787 462.292 178.341C457.959 176.914 452.541 176.907 446.862 177.703C435.488 179.297 422.645 184.176 414.295 188.175L415.159 189.979C423.413 186.026 436.048 181.238 447.14 179.684C452.694 178.905 457.757 178.954 461.667 180.24C465.517 181.508 468.231 183.961 469.275 188.106L471.214 187.617Z" fill="white"></path> <path d="M378.002 127.563C384.644 129.38 394.022 128.087 401.055 128.256C413.228 128.26 425.705 128.452 437.878 128.456C437.787 134.699 440.041 137.684 443.142 143.181C444.873 146.146 446.922 148.259 448.841 150.922C449.981 152.47 448.796 154.043 447.856 155.559C446.916 157.075 446.035 158.837 445.341 160.296C428.264 191.608 447.874 177.36 472.116 188.922C488.663 156.507 502.346 135.262 484.166 110.738C467.622 77.3439 409.958 76.0892 386.52 93.5108C369.209 88.4113 362.53 110.636 378.002 127.563Z" fill="#000F30"></path> <path d="M386.52 93.5108C409.958 76.0892 467.622 77.3439 484.166 110.738C502.346 135.262 488.663 156.507 472.116 188.922C447.874 177.36 428.264 191.608 445.341 160.296C446.035 158.837 446.916 157.075 447.856 155.559C448.796 154.043 449.981 152.47 448.841 150.922C446.922 148.259 444.873 146.146 443.142 143.181C440.041 137.684 437.787 134.699 437.878 128.456C425.705 128.452 413.228 128.26 401.055 128.256C394.022 128.087 384.644 129.38 378.002 127.563C362.53 110.636 369.209 88.4113 386.52 93.5108ZM386.52 93.5108C389.529 93.5994 405.846 96.0402 411.065 99.7827M455.641 132.206C454.544 138.698 449.214 139.845 455.655 149.457" stroke="white" stroke-width="2"></path> <path fill-rule="evenodd" clip-rule="evenodd" d="M451.229 150.149C451.568 150.513 451.735 150.886 451.781 151.264C451.947 151.501 452.11 151.74 452.27 151.98C452.318 151.935 452.366 151.891 452.414 151.847C457.489 146.807 465.387 148.812 470.05 156.196C474.528 163.623 474.102 173.482 468.785 178.321C466.023 180.835 462.579 181.568 459.279 180.65C458.033 192.08 452.25 202.965 442.318 210.322C423.313 224.399 396.311 220.579 382.225 201.573C374.814 191.573 372.357 179.362 374.46 167.985C370.856 151.144 375.594 132.266 386.483 119.702C388.219 120.177 389.453 120.554 390.528 120.883C393.483 121.788 395.235 122.324 402.933 123.495C409.584 124.507 416.989 124.039 424.558 123.561L424.558 123.561C428.938 123.284 433.372 123.004 437.747 123.005C437.893 128.854 442.273 136.602 445.312 141.979L445.641 142.562C446.583 144.479 447.858 145.999 449.15 147.539C449.855 148.38 450.565 149.228 451.229 150.149Z" fill="#000F30"></path> <path d="M451.781 151.264L450.788 151.383L450.818 151.631L450.961 151.836L451.781 151.264ZM451.229 150.149L450.418 150.734L450.455 150.784L450.497 150.83L451.229 150.149ZM452.27 151.98L451.439 152.536L452.096 153.519L452.956 152.708L452.27 151.98ZM452.414 151.847L453.088 152.586L453.104 152.572L453.119 152.556L452.414 151.847ZM470.05 156.196L470.907 155.68L470.902 155.671L470.896 155.662L470.05 156.196ZM468.785 178.321L469.458 179.061L469.458 179.061L468.785 178.321ZM459.279 180.65L459.547 179.687L458.413 179.371L458.285 180.541L459.279 180.65ZM442.318 210.322L441.722 209.519L441.722 209.519L442.318 210.322ZM382.225 201.573L381.422 202.168L381.422 202.168L382.225 201.573ZM374.46 167.985L375.443 168.167L375.48 167.971L375.438 167.776L374.46 167.985ZM386.483 119.702L386.746 118.738L386.139 118.572L385.727 119.047L386.483 119.702ZM390.528 120.883L390.82 119.927L390.82 119.927L390.528 120.883ZM402.933 123.495L402.783 124.484L402.783 124.484L402.933 123.495ZM424.558 123.561L424.622 124.559L424.631 124.558L424.64 124.558L424.558 123.561ZM424.558 123.561L424.495 122.563L424.486 122.564L424.477 122.564L424.558 123.561ZM437.747 123.005L438.747 122.981L438.723 122.005L437.747 122.005L437.747 123.005ZM445.312 141.979L446.182 141.487L446.182 141.487L445.312 141.979ZM445.641 142.562L446.539 142.121L446.526 142.095L446.512 142.07L445.641 142.562ZM449.15 147.539L448.383 148.182L448.383 148.182L449.15 147.539ZM452.774 151.144C452.7 150.536 452.43 149.972 451.962 149.468L450.497 150.83C450.707 151.055 450.77 151.236 450.788 151.383L452.774 151.144ZM453.102 151.425C452.937 151.179 452.771 150.935 452.601 150.692L450.961 151.836C451.123 152.068 451.282 152.301 451.439 152.536L453.102 151.425ZM451.741 151.107C451.688 151.155 451.636 151.204 451.584 151.253L452.956 152.708C453 152.667 453.043 152.626 453.088 152.586L451.741 151.107ZM470.896 155.662C468.455 151.797 465.117 149.26 461.628 148.392C458.111 147.517 454.505 148.361 451.709 151.137L453.119 152.556C455.398 150.293 458.279 149.619 461.145 150.333C464.04 151.053 466.983 153.21 469.205 156.729L470.896 155.662ZM469.458 179.061C472.359 176.42 473.868 172.47 474.089 168.282C474.311 164.087 473.25 159.567 470.907 155.68L469.194 156.712C471.328 160.252 472.293 164.375 472.092 168.176C471.891 171.983 470.528 175.382 468.112 177.582L469.458 179.061ZM459.011 181.613C462.64 182.623 466.44 181.808 469.458 179.061L468.112 177.582C465.605 179.863 462.517 180.513 459.547 179.687L459.011 181.613ZM442.913 211.126C453.081 203.595 458.998 192.451 460.273 180.759L458.285 180.541C457.067 191.708 451.42 202.336 441.722 209.519L442.913 211.126ZM381.422 202.168C395.842 221.625 423.472 225.526 442.913 211.126L441.722 209.519C423.154 223.272 396.781 219.533 383.028 200.977L381.422 202.168ZM373.476 167.803C371.325 179.441 373.839 191.936 381.422 202.168L383.028 200.977C375.79 191.21 373.389 179.283 375.443 168.167L373.476 167.803ZM385.727 119.047C374.626 131.856 369.815 151.056 373.482 168.194L375.438 167.776C371.898 151.232 376.563 132.676 387.239 120.357L385.727 119.047ZM390.82 119.927C389.744 119.598 388.498 119.216 386.746 118.738L386.22 120.667C387.941 121.137 389.163 121.511 390.235 121.839L390.82 119.927ZM403.084 122.506C395.426 121.341 393.723 120.815 390.82 119.927L390.235 121.839C393.244 122.76 395.043 123.306 402.783 124.484L403.084 122.506ZM424.495 122.563C416.898 123.043 409.607 123.499 403.084 122.506L402.783 124.484C409.56 125.515 417.079 125.035 424.622 124.559L424.495 122.563ZM424.477 122.564L424.477 122.564L424.64 124.558L424.64 124.558L424.477 122.564ZM437.747 122.005C433.335 122.004 428.869 122.287 424.495 122.563L424.622 124.559C429.006 124.282 433.409 124.004 437.747 124.005L437.747 122.005ZM446.182 141.487C444.659 138.793 442.828 135.552 441.357 132.261C439.878 128.952 438.815 125.701 438.747 122.981L436.747 123.03C436.825 126.158 438.024 129.705 439.531 133.077C441.047 136.467 442.925 139.788 444.441 142.471L446.182 141.487ZM446.512 142.07L446.182 141.487L444.441 142.47L444.77 143.053L446.512 142.07ZM449.916 146.897C448.615 145.345 447.419 143.913 446.539 142.121L444.744 143.003C445.747 145.044 447.101 146.652 448.383 148.182L449.916 146.897ZM452.041 149.564C451.351 148.609 450.618 147.734 449.916 146.897L448.383 148.182C449.092 149.027 449.779 149.847 450.418 150.734L452.041 149.564Z" fill="white"></path> <path d="M412.846 189.271C413.186 191.722 412.671 194.078 411.415 195.82C410.16 197.563 408.266 198.551 406.151 198.565C404.036 198.579 401.872 197.62 400.136 195.897C398.4 194.174 397.234 191.83 396.895 189.379L404.87 189.325L412.846 189.271Z" fill="#000F30" stroke="white" stroke-width="2"></path> <path d="M371.116 132.107C371.939 131.914 383.854 129.127 387.659 139.641M404.499 135.605C409.014 131.983 418.096 127.902 427.266 137.281" stroke="white" stroke-width="2"></path> <path d="M399.368 161.861C399.148 162.357 397.892 170.883 390.761 174.442C383.629 178.002 393.418 183.387 395.37 180.706" stroke="white" stroke-width="2"></path> <ellipse rx="14.4862" ry="16.1577" transform="matrix(0.990019 -0.140935 0.144268 0.989539 377.353 160.991)" fill="#000F30" stroke="white" stroke-width="2"></ellipse> <ellipse rx="14.4862" ry="16.1577" transform="matrix(0.978275 -0.207314 0.210607 0.977571 413.949 164.591)" fill="#000F30" stroke="white" stroke-width="2"></ellipse> <path d="M391.901 157.773C393.595 156.141 397.858 154.069 401.356 158.842M428.228 164.305L457.347 148.897" stroke="white" stroke-width="2"></path> <path d="M463.042 156.878C469.422 162.534 467.351 170.862 461.247 174.02M482.998 151.802C485.491 150.426 489.441 144.263 485.302 130.627" stroke="white" stroke-width="2"></path> <path d="M531.889 462.802C536.13 453.4 564.596 369.878 570.139 334.095C575.682 298.312 565.605 284.077 555.428 273.531C551.867 269.981 531.114 257.569 513.161 247.921C509.092 245.734 505.166 243.689 501.616 241.921C486.616 252.291 448.615 273.477 415.116 266.421C382.809 259.635 393.673 241.96 394.616 234.921C378.531 237.716 348.725 242.9 344.873 244.662C340.17 246.341 335.886 248.772 332.133 251.791C327.132 255.213 319.139 260.959 308.429 269.532C289.087 285.015 251.028 317.03 247.336 322.67C247.336 322.67 264.305 380.119 265.201 379.976C265.369 379.949 265.564 379.96 265.815 379.973C267.232 380.049 311.942 365.335 322.116 359.421C329.398 355.337 312.877 399.421 332.133 442.921C394.616 493.921 471.616 470.376 486.616 463.876C502.066 461.412 525.004 477.216 530.913 463.876C531.325 463.58 531.737 463.285 531.889 462.802Z" fill="#515F79"></path> <path d="M513.161 247.921C509.092 245.734 505.166 243.689 501.616 241.921C486.616 252.291 448.615 273.477 415.116 266.421C382.809 259.635 393.673 241.96 394.616 234.921C378.531 237.716 348.725 242.9 344.873 244.662C340.17 246.341 335.886 248.772 332.133 251.791C327.132 255.213 319.139 260.959 308.429 269.532C289.087 285.015 251.028 317.03 247.336 322.67C247.336 322.67 264.305 380.119 265.201 379.976C265.369 379.949 265.564 379.96 265.815 379.973C267.232 380.049 311.942 365.335 322.116 359.421C329.398 355.337 312.877 399.421 332.133 442.921C394.616 493.921 471.616 470.376 486.616 463.876C502.066 461.412 525.004 477.216 530.913 463.876C531.325 463.58 531.737 463.285 531.889 462.802C536.13 453.4 564.596 369.878 570.139 334.095C575.682 298.312 565.605 284.077 555.428 273.531C551.867 269.981 531.114 257.569 513.161 247.921ZM513.161 247.921C504.813 254.328 480.816 268.419 451.616 273.531M383.116 241.921C381.95 249.792 382.616 266.333 394.616 269.532M486.616 407.421C491.016 397.021 495.47 354.204 497.147 334.095" stroke="white" stroke-width="2"></path> <path d="M221.311 381.46C220.184 384.703 216.484 387.053 213.044 386.161C209.347 385.18 208.275 379.962 207.669 376.723C207.227 373.843 207.23 370.513 208.847 368.348C205.713 365.745 203.82 362.059 203.496 358.009C203.263 357.02 203.381 355.849 203.756 354.768C203.874 353.597 204.507 352.606 204.626 351.435C204.744 350.264 204.159 349.456 203.668 348.377C203.178 347.298 202.687 346.219 202.197 345.14C201.567 342.801 201.288 340.281 201.781 338.029C202.018 335.688 203.822 332.983 202.935 330.555C202.211 328.486 201.487 326.418 201.372 324.257C203.274 313.546 209.14 311.333 217.711 322.056C219.722 324.572 221.99 327.177 223.556 330.143C225.448 333.829 224.625 338.692 221.439 341.221C222.865 342.927 223.589 344.996 223.962 347.246C224.38 351.026 222.809 354.72 221.074 358.055C223.645 362.28 222.891 367.773 219.845 371.561C221.41 374.528 222.531 377.946 221.311 381.46Z" fill="#000F30"></path> <path d="M208.847 368.348C207.23 370.513 207.227 373.843 207.669 376.723C208.275 379.962 209.347 385.18 213.044 386.161C216.484 387.053 220.184 384.703 221.311 381.46C222.531 377.946 221.41 374.528 219.845 371.561M208.847 368.348C205.713 365.745 203.82 362.059 203.496 358.009C203.263 357.02 203.381 355.849 203.756 354.768C203.874 353.597 204.507 352.606 204.626 351.435C204.744 350.264 204.159 349.456 203.668 348.377M208.847 368.348C212.201 372.835 217.576 372.36 219.845 371.561M203.668 348.377C203.178 347.298 202.687 346.219 202.197 345.14C201.567 342.801 201.288 340.281 201.781 338.029C202.018 335.688 203.822 332.983 202.935 330.555M203.668 348.377C209.729 355.507 217.797 357.8 221.074 358.055M202.935 330.555C202.211 328.486 201.487 326.418 201.372 324.257C203.274 313.546 209.14 311.333 217.711 322.056C219.722 324.572 221.99 327.177 223.556 330.143C225.448 333.829 224.625 338.692 221.439 341.221M202.935 330.555C207.431 337.619 217.144 340.609 221.439 341.221M221.439 341.221C222.865 342.927 223.589 344.996 223.962 347.246C224.38 351.026 222.809 354.72 221.074 358.055M221.074 358.055C223.645 362.28 222.891 367.773 219.845 371.561" stroke="white" stroke-width="2"></path> <rect x="170.816" y="90.8156" width="11.4369" height="148.227" rx="5.71843" transform="rotate(-0.0611462 170.816 90.8156)" fill="#000F30" stroke="white" stroke-width="2"></rect> <path d="M190.897 231.051C191.442 230.429 191.966 229.784 192.47 229.116C193.937 227.173 195.05 224.964 196.163 222.754L196.164 222.752C196.996 221.161 197.513 219.332 198.03 217.503L198.03 217.503C198.289 216.589 198.548 215.675 198.845 214.79C199.696 211.827 200.899 209.129 203.473 207.189C205.781 205.602 208.661 204.726 211.315 205.619C213.394 206.422 211.515 215.307 211.058 217.352L210.071 221.599C210.577 229.747 210.153 238.026 208.445 246.167C207.592 250.238 206.471 254.662 204.997 258.82C204.779 259.366 204.57 259.919 204.361 260.474L204.361 260.474C203.67 262.305 202.968 264.166 201.876 265.895C215.041 289.977 228.515 314.016 244.431 336.291C248.314 341.443 251.91 346.552 252.171 353.229C254.938 377.568 222.988 400.507 205.917 377.394C203.403 374.11 201.776 370.386 200.283 366.485C183.598 332.857 164.096 296.291 153.5 260.167C153.438 259.946 153.376 259.723 153.313 259.499L153.313 259.499C150.008 247.727 143.107 227.628 156.622 219.608C157.727 214.726 162.39 205.219 172.938 205.619C186.122 206.119 189.325 212.229 190.897 214.79C192.155 216.84 191.422 223.035 190.897 225.876C191.393 227.208 191.445 228.887 190.897 231.051Z" fill="#000F30"></path> <path d="M156.622 219.608C143.107 227.628 150.008 247.727 153.313 259.499C153.376 259.723 153.438 259.946 153.5 260.167C164.096 296.291 183.598 332.857 200.283 366.485C201.776 370.386 203.403 374.11 205.917 377.394C222.988 400.507 254.938 377.568 252.171 353.229C251.91 346.552 248.314 341.443 244.431 336.291C228.515 314.016 215.041 289.977 201.876 265.895C202.968 264.166 203.67 262.305 204.361 260.474C204.57 259.919 204.779 259.366 204.997 258.82C206.471 254.662 207.592 250.238 208.445 246.167C210.153 238.026 210.577 229.747 210.071 221.599L211.058 217.352C211.515 215.307 213.394 206.422 211.315 205.619C208.661 204.726 205.781 205.602 203.473 207.189C200.899 209.129 199.696 211.827 198.845 214.79C198.547 215.675 198.289 216.589 198.03 217.503C197.513 219.332 196.996 221.161 196.164 222.752L196.163 222.754C195.05 224.964 193.937 227.173 192.47 229.116C191.966 229.784 191.442 230.429 190.897 231.051M156.622 219.608C157.727 214.726 162.39 205.219 172.938 205.619C186.122 206.119 189.325 212.229 190.897 214.79C192.155 216.84 191.422 223.035 190.897 225.876M156.622 219.608C161.954 215.681 184.938 208.569 190.897 225.876M190.897 231.051C193.405 234.622 196.624 243.363 189.438 249.763M190.897 231.051C183.578 227.288 166.838 222.563 158.438 233.763M190.897 231.051C191.445 228.887 191.393 227.208 190.897 225.876M189.438 249.763C190.897 254.263 192.098 260.263 184.938 264.263C177.777 268.263 171.938 265.235 172.938 259.499C174.938 256.511 176.997 257.097 177.777 257.763C176.331 257.199 172.838 256.89 170.438 260.167M189.438 249.763C188.104 244.263 180.338 236.163 159.938 247.763" stroke="white" stroke-width="2"></path> <path d="M230.622 315L255.622 350.5L294.622 389C273.288 399.667 229.722 421 226.122 421C221.622 421 184.714 337.5 189.122 344.5C203.543 367.404 232.097 333.194 230.622 315Z" fill="#515F79" stroke="white" stroke-width="2"></path> <rect x="168.144" y="255.633" width="11.4369" height="58.991" rx="5.71843" transform="rotate(-0.0611462 168.144 255.633)" fill="#000F30" stroke="white" stroke-width="2"></rect> <path d="M532.379 451.474C535.278 473.971 503.511 496.488 476.649 489.292C458.901 484.546 442.646 469 430.473 456.018C427.439 452.828 424.888 449.791 422.042 446.342C427.597 440.864 433.116 435.162 438.671 429.684C449.97 418.468 461.975 407.369 471.349 394.165C474.795 397.059 478.018 399.989 481.5 403.107C502.348 422.972 530.96 441.139 532.379 451.474Z" fill="#515F79" stroke="white" stroke-width="2"></path> <path d="M481.116 403.422C483.45 410.589 483.616 428.622 465.616 443.422" stroke="white" stroke-width="2"></path> <path d="M271.096 164H340.148C343.056 164.008 345.842 165.159 347.898 167.201C349.955 169.243 351.114 172.01 351.122 174.898V207.533C351.114 210.421 349.955 213.188 347.898 215.23C345.842 217.272 343.056 218.423 340.148 218.431H332.309V234L313.944 218.793C313.662 218.559 313.306 218.431 312.938 218.431H271.096C268.188 218.423 265.401 217.272 263.345 215.23C261.289 213.188 260.13 210.421 260.122 207.533V174.898C260.13 172.01 261.289 169.243 263.345 167.201C265.401 165.159 268.188 164.008 271.096 164Z" fill="#000F30" stroke="white" stroke-width="2"></path> <ellipse rx="7" ry="6.5" transform="matrix(-1 0 0 1 282.122 192.5)" fill="#000F30" stroke="white" stroke-width="2"></ellipse> <circle r="6.5" transform="matrix(-1 0 0 1 303.622 192.5)" fill="#000F30" stroke="white" stroke-width="2"></circle> <circle r="6.5" transform="matrix(-1 0 0 1 325.622 192.5)" fill="#000F30" stroke="white" stroke-width="2"></circle> <path fill-rule="evenodd" clip-rule="evenodd" d="M608.599 147L604.338 154.523L600.122 162H608.599H617.122L612.86 154.523L608.599 147Z" fill="#FF7A00"></path> <path fill-rule="evenodd" clip-rule="evenodd" d="M101.556 330C107.996 330 113.122 335.126 113.122 341.566C113.122 347.874 107.996 353 101.556 353C95.2473 353 90.1216 347.874 90.1216 341.566C90.1216 335.126 95.2473 330 101.556 330Z" fill="#BD00FF"></path> <path fill-rule="evenodd" clip-rule="evenodd" d="M594.122 351.04C594.122 354.88 597.242 358 601.082 358C605.002 358 608.122 354.88 608.122 351.04C608.122 347.2 605.002 344 601.082 344C597.242 344 594.122 347.2 594.122 351.04Z" fill="#0066FF"></path> <path d="M628.122 132L615.997 153.75H640.246L628.122 132Z" stroke="white" stroke-width="2"></path> <path d="M423.819 497.854C424.262 497.224 423.858 496.35 423.091 496.282L406.709 494.814C405.943 494.745 405.389 495.532 405.712 496.231L412.624 511.163C412.947 511.862 413.905 511.948 414.348 511.318L423.819 497.854Z" stroke="white" stroke-width="2"></path> <path fill-rule="evenodd" clip-rule="evenodd" d="M295.272 290.347C295.622 290.424 295.964 290.163 295.984 289.803V289.803C295.991 289.675 296.041 289.552 296.125 289.454L307.666 275.947C309.96 273.263 313.459 271.938 316.898 272.452L351.802 277.669C355.402 278.207 358.377 280.675 359.561 284.105L365.446 301.155C366.55 304.354 369.22 306.733 372.529 307.466L412.036 316.22C418.643 317.684 423.289 323.46 423.344 330.279L424.082 421.566C424.162 431.477 414.781 439.042 405.211 436.784L265.557 403.833C260.05 402.533 255.856 398.194 254.736 392.636L239.511 317.104C238.459 311.887 240.284 306.415 244.3 302.746L259.239 289.096C262.951 285.704 268.038 284.312 272.834 285.374L295.272 290.347Z" fill="#000F30"></path> <path d="M412.036 316.22L412.273 315.243L412.036 316.22ZM423.344 330.279L424.344 330.248L424.344 330.248L423.344 330.279ZM424.082 421.566L425.082 421.535L425.082 421.535L424.082 421.566ZM405.211 436.784L405.461 435.81L405.461 435.81L405.211 436.784ZM265.557 403.833L265.808 402.859L265.557 403.833ZM254.736 392.636L253.756 392.855L253.756 392.855L254.736 392.636ZM239.511 317.104L240.491 316.884L240.491 316.884L239.511 317.104ZM244.3 302.746L243.635 302.014L243.635 302.014L244.3 302.746ZM259.239 289.096L258.574 288.365L258.574 288.365L259.239 289.096ZM272.834 285.374L272.597 286.351L272.597 286.351L272.834 285.374ZM365.446 301.155L364.5 301.5L365.446 301.155ZM351.802 277.669L351.632 278.658L351.802 277.669ZM359.561 284.105L358.616 284.451L359.561 284.105ZM295.272 290.347L295.035 291.323L295.272 290.347ZM296.125 289.454L296.878 290.094L296.125 289.454ZM306.913 275.307L295.372 288.814L296.878 290.094L308.419 276.587L306.913 275.307ZM351.972 276.679L317.068 271.463L316.728 273.441L351.632 278.658L351.972 276.679ZM366.392 300.809L360.507 283.76L358.616 284.451L364.5 301.5L366.392 300.809ZM372.292 308.443L411.798 317.197L412.273 315.243L372.767 306.489L372.292 308.443ZM411.798 317.197C417.96 318.562 422.293 323.948 422.345 330.31L424.344 330.248C424.285 322.973 419.326 316.806 412.273 315.243L411.798 317.197ZM422.345 330.31L423.082 421.597L425.082 421.535L424.344 330.248L422.345 330.31ZM423.082 421.597C423.157 430.854 414.392 437.917 405.461 435.81L404.96 437.758C415.17 440.167 425.167 432.1 425.082 421.535L423.082 421.597ZM405.461 435.81L265.808 402.859L265.307 404.807L404.96 437.758L405.461 435.81ZM265.808 402.859C260.672 401.647 256.761 397.601 255.716 392.417L253.756 392.855C254.951 398.787 259.428 403.42 265.307 404.807L265.808 402.859ZM255.716 392.417L240.491 316.884L238.531 317.323L253.756 392.855L255.716 392.417ZM240.491 316.884C239.51 312.017 241.212 306.906 244.965 303.477L243.635 302.014C239.356 305.923 237.409 311.757 238.531 317.323L240.491 316.884ZM244.965 303.477L259.903 289.828L258.574 288.365L243.635 302.014L244.965 303.477ZM259.903 289.828C263.372 286.658 268.123 285.36 272.597 286.351L273.071 284.397C267.953 283.263 262.53 284.75 258.574 288.365L259.903 289.828ZM272.597 286.351L295.035 291.323L295.51 289.37L273.071 284.397L272.597 286.351ZM364.5 301.5C365.715 305.02 368.652 307.636 372.292 308.443L372.767 306.489C369.788 305.829 367.385 303.688 366.392 300.809L364.5 301.5ZM351.632 278.658C354.873 279.143 357.55 281.364 358.616 284.451L360.507 283.76C359.205 279.986 355.932 277.271 351.972 276.679L351.632 278.658ZM308.419 276.587C310.484 274.171 313.633 272.979 316.728 273.441L317.068 271.463C313.285 270.897 309.435 272.354 306.913 275.307L308.419 276.587ZM294.986 289.769C295.001 289.504 295.252 289.313 295.51 289.37L295.035 291.323C295.992 291.535 296.926 290.822 296.982 289.837L294.986 289.769ZM296.982 289.837C296.977 289.931 296.94 290.022 296.878 290.094L295.372 288.814C295.142 289.083 295.006 289.419 294.986 289.769L296.982 289.837Z" fill="white"></path> <path fill-rule="evenodd" clip-rule="evenodd" d="M286.147 299.574C283.678 302.461 279.832 303.758 276.189 302.931L256.942 298.561C247.402 296.395 238.122 303.939 238.204 313.795L238.962 404.844C239.02 411.856 243.928 417.741 250.78 419.014L383.924 443.746C398.249 446.407 411.782 435.066 411.782 420.399L411.782 345.342C411.782 338.5 407.155 332.668 400.534 331.165L357.376 321.366C354.076 320.616 351.422 318.23 350.331 315.032L344.981 299.345C343.799 295.88 340.792 293.391 337.158 292.868L302.348 287.855C298.925 287.362 295.45 288.687 293.169 291.357L286.147 299.574Z" fill="#000F30"></path> <path d="M256.942 298.561L256.699 299.537L256.942 298.561ZM238.204 313.795L239.204 313.763L238.204 313.795ZM238.962 404.844L239.962 404.813L238.962 404.844ZM250.78 419.014L250.984 418.03L250.984 418.03L250.78 419.014ZM383.924 443.746L383.72 444.73L383.72 444.73L383.924 443.746ZM411.782 420.399L410.782 420.422L410.782 420.422L411.782 420.399ZM411.782 345.342L410.782 345.365L410.782 345.365L411.782 345.342ZM400.534 331.165L400.292 332.141L400.292 332.141L400.534 331.165ZM344.981 299.345L344.034 299.688L344.981 299.345ZM357.376 321.366L357.134 322.341L357.376 321.366ZM350.331 315.032L351.278 314.689L350.331 315.032ZM286.147 299.574L285.393 298.934L286.147 299.574ZM256.699 299.537L275.947 303.907L276.432 301.955L257.184 297.585L256.699 299.537ZM239.204 313.763C239.127 304.559 247.797 297.515 256.699 299.537L257.184 297.585C247.007 295.274 237.117 303.319 237.204 313.826L239.204 313.763ZM239.962 404.813L239.204 313.763L237.204 313.826L237.962 404.875L239.962 404.813ZM250.984 418.03C244.594 416.843 240.016 411.356 239.962 404.813L237.962 404.875C238.025 412.357 243.263 418.639 250.575 419.998L250.984 418.03ZM384.128 442.763L250.984 418.03L250.575 419.998L383.72 444.73L384.128 442.763ZM410.782 420.422C410.782 434.457 397.83 445.308 384.128 442.763L383.72 444.73C398.668 447.507 412.782 435.675 412.782 420.376L410.782 420.422ZM410.782 345.365L410.782 420.422L412.782 420.376L412.782 345.32L410.782 345.365ZM400.292 332.141C406.467 333.543 410.782 338.981 410.782 345.365L412.782 345.32C412.782 338.02 407.844 331.794 400.776 330.189L400.292 332.141ZM357.134 322.341L400.292 332.141L400.776 330.189L357.619 320.39L357.134 322.341ZM351.278 314.689L345.928 299.003L344.034 299.688L349.384 315.374L351.278 314.689ZM337.322 291.877L302.513 286.865L302.184 288.845L336.993 293.858L337.322 291.877ZM292.416 290.716L285.393 298.934L286.9 300.214L293.923 291.997L292.416 290.716ZM345.928 299.003C344.628 295.191 341.32 292.453 337.322 291.877L336.993 293.858C340.264 294.329 342.97 296.569 344.034 299.688L345.928 299.003ZM357.619 320.39C354.649 319.715 352.26 317.568 351.278 314.689L349.384 315.374C350.584 318.892 353.504 321.517 357.134 322.341L357.619 320.39ZM302.513 286.865C298.747 286.322 294.925 287.78 292.416 290.716L293.923 291.997C295.976 289.594 299.103 288.401 302.184 288.845L302.513 286.865ZM275.947 303.907C279.954 304.817 284.185 303.39 286.9 300.214L285.393 298.934C283.172 301.533 279.71 302.7 276.432 301.955L275.947 303.907Z" fill="white"></path> <path d="M304.586 419.185L386.436 436.416" stroke="white" stroke-width="2"></path> <path d="M301.2 298.985L293.873 308.62C291.566 311.655 293.367 316.052 297.141 316.596L333.932 321.894C337.464 322.402 340.376 319.155 339.488 315.699L336.632 304.597C336.129 302.643 334.5 301.182 332.502 300.894L305.893 297.062C304.096 296.803 302.299 297.539 301.2 298.985Z" stroke="white" stroke-width="2"></path> <path d="M260.43 304.003L278.739 425.701" stroke="white" stroke-width="2"></path> <path fill-rule="evenodd" clip-rule="evenodd" d="M323.216 404.381C337.344 395.566 343.53 376.462 337.111 357.832C329.607 336.054 307.721 323.169 288.227 329.052C287.333 329.322 286.458 329.627 285.605 329.965L285.523 329.803L283.417 330.927C282.659 331.294 281.92 331.689 281.2 332.11L241.417 353.337L276.56 447.971L323.216 404.381Z" fill="#000F30"></path> <path d="M337.111 357.832L336.165 358.157L336.165 358.157L337.111 357.832ZM323.216 404.381L322.687 403.532L322.604 403.584L322.533 403.65L323.216 404.381ZM288.227 329.052L287.938 328.094L287.938 328.094L288.227 329.052ZM285.605 329.965L284.715 330.42L285.129 331.229L285.974 330.894L285.605 329.965ZM285.523 329.803L286.413 329.348L285.95 328.442L285.052 328.921L285.523 329.803ZM283.417 330.927L283.853 331.827L283.87 331.818L283.888 331.809L283.417 330.927ZM281.2 332.11L281.671 332.992L281.688 332.983L281.705 332.973L281.2 332.11ZM241.417 353.337L240.946 352.455L240.175 352.866L240.479 353.685L241.417 353.337ZM276.56 447.971L275.622 448.319L276.145 449.727L277.242 448.702L276.56 447.971ZM336.165 358.157C342.458 376.42 336.357 395.002 322.687 403.532L323.746 405.229C338.33 396.129 344.602 376.505 338.056 357.506L336.165 358.157ZM288.516 330.009C307.394 324.312 328.8 336.781 336.165 358.157L338.056 357.506C330.414 335.327 308.048 322.026 287.938 328.094L288.516 330.009ZM285.974 330.894C286.801 330.567 287.648 330.271 288.516 330.009L287.938 328.094C287.017 328.372 286.116 328.687 285.237 329.035L285.974 330.894ZM286.496 329.509L286.413 329.348L284.632 330.259L284.715 330.42L286.496 329.509ZM285.052 328.921L282.946 330.045L283.888 331.809L285.994 330.685L285.052 328.921ZM281.705 332.973C282.402 332.565 283.118 332.183 283.853 331.827L282.981 330.027C282.199 330.406 281.437 330.812 280.695 331.246L281.705 332.973ZM280.729 331.227L240.946 352.455L241.887 354.219L281.671 332.992L280.729 331.227ZM240.479 353.685L275.622 448.319L277.497 447.623L242.354 352.989L240.479 353.685ZM277.242 448.702L323.899 405.111L322.533 403.65L275.877 447.24L277.242 448.702Z" fill="white"></path> <ellipse rx="51.0098" ry="52.4717" transform="matrix(0.959694 -0.281047 0.334454 0.942412 248.414 403.81)" fill="#000F30" stroke="white" stroke-width="2"></ellipse> <ellipse rx="49.6989" ry="55.7488" transform="matrix(0.959694 -0.281047 0.334454 0.942412 227.743 419.351)" fill="#000F30" stroke="white" stroke-width="2"></ellipse> <ellipse rx="36.766" ry="41.2416" transform="matrix(0.959694 -0.281047 0.334454 0.942412 227.743 419.351)" fill="#000F30" stroke="white" stroke-width="2"></ellipse> <path d="M219.349 395.699C218.399 393.023 215.376 391.456 212.913 392.802C209.142 394.863 205.977 397.932 203.714 401.777C201.243 405.975 199.961 410.903 199.964 416.048C199.965 418.46 202.215 420.283 204.702 420.192V420.192C207.372 420.095 209.258 417.826 209.503 415.258C209.76 412.561 210.566 410 211.887 407.755C213.078 405.733 214.646 404.036 216.493 402.742C218.78 401.14 220.299 398.376 219.349 395.699V395.699Z" fill="#000F30" stroke="white" stroke-width="2"></path> <path d="M361.065 342.24C360.357 338.557 363.805 335.435 367.4 336.503L379.88 340.213C381.738 340.765 383.109 342.341 383.4 344.257L385.301 356.813C385.838 360.363 382.57 363.306 379.095 362.4L367.247 359.311C365.382 358.824 363.962 357.309 363.599 355.416L361.065 342.24Z" stroke="white" stroke-width="2"></path> <ellipse cx="270.661" cy="289.923" rx="14.5392" ry="6.46186" fill="#000F30" stroke="white" stroke-width="2"></ellipse> <ellipse cx="270.661" cy="283.462" rx="14.5392" ry="6.46186" fill="#000F30" stroke="white" stroke-width="2"></ellipse> <path d="M422.561 447.483C410.918 432.402 400.973 413.544 398.173 394.585C397.458 390.107 396.932 385.37 397.114 380.749C397.194 379.43 397.356 378.052 397.52 376.657C397.876 373.637 398.241 370.538 397.801 367.782C397.444 365.543 396.639 363.375 395.834 361.207C392.242 351.924 383.267 343.104 373.509 340.027C368.792 338.54 360.904 335.565 364.265 328.818C365.968 325.102 369.667 323.823 373.509 323.44C365.434 319.565 363.875 306.641 376.204 306.641C374.588 299.004 385.063 294.628 395.834 298.025C391.928 292.574 397.803 289.068 403.438 289.409C413.943 290.489 422.913 294.897 427.995 303.729C428.917 305.189 429.578 306.461 430.276 307.957C434.355 316.261 436.044 325.405 437.284 334.621C438.596 344.285 439.683 353.984 439.356 363.45C439.392 363.674 439.428 363.898 439.239 364.157C444.358 371.443 453.789 379.586 464.235 388.607C465.636 389.817 467.055 391.043 468.485 392.284C469.477 392.671 470.385 393.202 471.195 393.881C478.952 400.391 474.773 418.142 461.861 433.53C448.948 448.918 432.192 456.115 424.434 449.605C423.705 448.993 423.082 448.282 422.561 447.483Z" fill="#000F30"></path> <path d="M373.509 323.44C369.667 323.823 365.968 325.102 364.265 328.818C360.904 335.565 368.792 338.54 373.509 340.027C383.267 343.104 392.242 351.924 395.834 361.207C396.639 363.375 397.444 365.543 397.801 367.782C398.241 370.538 397.876 373.637 397.52 376.657C397.356 378.052 397.194 379.43 397.114 380.749C396.932 385.37 397.458 390.107 398.173 394.585C400.973 413.544 410.918 432.402 422.561 447.483C423.082 448.282 423.705 448.993 424.434 449.605C432.192 456.115 448.948 448.918 461.861 433.53C474.773 418.142 478.952 400.391 471.195 393.881C470.385 393.202 469.477 392.671 468.485 392.284C467.055 391.043 465.636 389.817 464.235 388.607C453.789 379.586 444.358 371.443 439.239 364.157C439.428 363.898 439.392 363.674 439.356 363.45C439.683 353.984 438.596 344.285 437.284 334.621C436.044 325.405 434.355 316.261 430.276 307.957C429.578 306.461 428.917 305.189 427.995 303.729C422.913 294.897 413.943 290.489 403.438 289.409C397.803 289.068 391.928 292.574 395.834 298.025M373.509 323.44C365.434 319.565 363.875 306.641 376.204 306.641M373.509 323.44C378.213 323.225 388.676 324.519 392.897 331.411M376.204 306.641C374.588 299.004 385.063 294.628 395.834 298.025M376.204 306.641C383.59 306.428 399.379 308.285 403.438 317.41M395.834 298.025C401.317 298.185 412.713 300.395 414.436 307.957" stroke="white" stroke-width="2"></path> <path d="M179.302 26.9487L212.441 45.0597L244.516 64.9934L245.401 102.748L244.175 140.493L211.921 160.136L178.621 177.947L145.482 159.836L113.407 139.902L112.522 102.148L113.748 64.4032L146.001 44.7598L179.302 26.9487Z" fill="#000F30" stroke="white" stroke-width="2"></path> <path d="M383.791 494.652C338.193 515.512 293.356 528.41 254.4 531.903C215.42 535.399 184.034 529.327 163.684 514.579C143.405 499.884 134.744 477.052 138.813 448.497C142.89 419.889 159.59 386.731 187.131 352.817" stroke="white" stroke-width="2"></path> <path d="M107.218 479.109C105.786 441.184 127.701 393.547 169.292 344.84" stroke="white" stroke-width="2"></path> <path d="M540.456 172.664C564.466 174.309 584.02 180.588 598.076 191.057C612.108 201.508 620.442 215.973 622.616 233.673C624.793 251.402 620.752 272.082 610.623 294.552C600.495 317.018 584.504 340.781 563.54 364.48" stroke="white" stroke-width="2"></path> <path d="M644.096 210.913C654.136 242.147 644.049 283.523 615.055 328.447" stroke="white" stroke-width="2"></path> </svg> 